<svg xmlns="http://www.w3.org/2000/svg" xmlns:xlink="http://www.w3.org/1999/xlink" width="96" height="96" viewBox="0 0 192 192">
   <!--  <defs>
        <filter id="f1" x="0" y="0" width="200%" height="200%">
            <feOffset result="offOut" in="SourceAlpha" dx="2" dy="2"/>
            <feGaussianBlur result="blurOut" in="offOut" stdDeviation="3"/>
            <feBlend in="SourceGraphic" in2="blurOut" mode="normal"/>
        </filter>
		<filter id="shadow">
      		<feDropShadow dx="2.2" dy="2.4" stdDeviation="2.2"/>
    	</filter>
    </defs> -->
    <g fill-rule="evenodd">
        <path fill="black" d="
			M 96, 96
			m -88, 0
			a 88,88 0 1,0 176,0
			a 88,88 0 1,0 -176,0
			M 96, 96
			m -2, 0
			a 2,2 0 1,0 4,0
			a 2,2 0 1,0 -4,0
		"/>
        <path fill="white" d="
			M 96, 96
			m -32, 0
			a 32,32 0 1,0 64,0
			a 32,32 0 1,0 -64,0
			M 96, 96
			m -4, 0
			a 4,4 0 1,0 8,0
			a 4,4 0 1,0 -8,0
		"/>
    </g>
</svg>
