<?xml version="1.0" encoding="UTF-8" standalone="no"?>
<!-- Created with Inkscape (http://www.inkscape.org/) -->

<svg
              xmlns:dc="http://purl.org/dc/elements/1.1/"
              xmlns:cc="http://creativecommons.org/ns#"
              xmlns:rdf="http://www.w3.org/1999/02/22-rdf-syntax-ns#"
              xmlns:svg="http://www.w3.org/2000/svg"
              xmlns="http://www.w3.org/2000/svg"
              xmlns:sodipodi="http://sodipodi.sourceforge.net/DTD/sodipodi-0.dtd"
              xmlns:inkscape="http://www.inkscape.org/namespaces/inkscape"
              width="100"
              height="100"
              viewBox="0 0 26.458333 26.458334"
              version="1.1"
              id="svg8"
              sodipodi:docname="record.svg"
              inkscape:version="0.92.4 5da689c313, 2019-01-14">
             <defs
                           id="defs2" />
             <sodipodi:namedview
                           id="base"
                           pagecolor="#ffffff"
                           bordercolor="#666666"
                           borderopacity="1.0"
                           inkscape:pageopacity="0.0"
                           inkscape:pageshadow="2"
                           inkscape:zoom="11.2"
                           inkscape:cx="58.73723"
                           inkscape:cy="32.694681"
                           inkscape:document-units="px"
                           inkscape:current-layer="layer1"
                           showgrid="true"
                           units="px"
                           inkscape:window-width="3840"
                           inkscape:window-height="2127"
                           inkscape:window-x="0"
                           inkscape:window-y="33"
                           inkscape:window-maximized="0"
                           showguides="true"
                           inkscape:guide-bbox="true">
                          <inkscape:grid
                                        type="xygrid"
                                        id="grid853" />
             </sodipodi:namedview>
             <metadata
                           id="metadata5">
                          <rdf:RDF>
                                       <cc:Work
                                                     rdf:about="">
                                                    <dc:format>image/svg+xml</dc:format>
                                                    <dc:type
                                                                  rdf:resource="http://purl.org/dc/dcmitype/StillImage" />
                                                    <dc:title></dc:title>
                                       </cc:Work>
                          </rdf:RDF>
             </metadata>
             <g
                           inkscape:label="Layer 1"
                           inkscape:groupmode="layer"
                           id="layer1"
                           transform="translate(0,-270.54165)">
                          <rect
                                        style="opacity:1;fill:#ff0000;fill-opacity:1;fill-rule:nonzero;stroke:none;stroke-width:0.79374999;stroke-linecap:butt;stroke-linejoin:round;stroke-miterlimit:4;stroke-dasharray:none;stroke-opacity:1;paint-order:normal"
                                        id="rect849"
                                        width="9.0241814"
                                        height="7.3232884"
                                        x="-18.898809"
                                        y="274.20331" />
                          <path
                                        style="opacity:1;fill:#000000;fill-opacity:1;fill-rule:nonzero;stroke:none;stroke-width:4.56521702;stroke-linecap:butt;stroke-linejoin:round;stroke-miterlimit:4;stroke-dasharray:none;stroke-opacity:1;paint-order:normal"
                                        d="M 50 0 A 50.000001 50.000001 0 0 0 0 50 A 50.000001 50.000001 0 0 0 50 100 A 50.000001 50.000001 0 0 0 100 50 A 50.000001 50.000001 0 0 0 50 0 z M 50 48 A 2.0000001 2.0000001 0 0 1 52 50 A 2.0000001 2.0000001 0 0 1 50 52 A 2.0000001 2.0000001 0 0 1 48 50 A 2.0000001 2.0000001 0 0 1 50 48 z "
                                        transform="matrix(0.26458333,0,0,0.26458333,0,270.54165)"
                                        id="vinyl" />
                          <path
                                        style="opacity:1;fill:#ff0000;fill-opacity:1;fill-rule:nonzero;stroke:none;stroke-width:6.33298397;stroke-linecap:butt;stroke-linejoin:round;stroke-miterlimit:4;stroke-dasharray:none;stroke-opacity:1;paint-order:normal"
                                        d="M 50 32 A 17.999999 17.999999 0 0 0 32 50 A 17.999999 17.999999 0 0 0 50 68 A 17.999999 17.999999 0 0 0 68 50 A 17.999999 17.999999 0 0 0 50 32 z M 50 48 A 2.0000001 2.0000001 0 0 1 52 50 A 2.0000001 2.0000001 0 0 1 50 52 A 2.0000001 2.0000001 0 0 1 48 50 A 2.0000001 2.0000001 0 0 1 50 48 z "
                                        id="path851"
                                        transform="matrix(0.26458333,0,0,0.26458333,0,270.54165)" />
             </g>
</svg>
