<svg xmlns="http://www.w3.org/2000/svg" xmlns:xlink="http://www.w3.org/1999/xlink" width="17.8cm" height="17.8cm" viewBox="0 0 17.8 17.8">
	<g fill-rule="evenodd">
		<path id="vinyl" fill="black" d="
			M 8.9, 8.9
			m -8.9, 0
			a 8.9,8.9 0 1,0 17.8,0
			a 8.9,8.9 0 1,0 -17.8,0
			M 8.9, 8.9
			m -1.9, 0
			a 1.9,1.9 0 1,0 3.8,0
			a 1.9,1.9 0 1,0 -3.8,0"/>
		<path id="label" fill="white" d="
			M 8.9, 8.9
			m -4.5, 0
			a 4.5,4.5 0 1,0 9,0
			a 4.5,4.5 0 1,0 -9,0
			M 8.9, 8.9
			m -1.9, 0
			a 1.9,1.9 0 1,0 3.8,0
			a 1.9,1.9 0 1,0 -3.8,0"/>
	</g>
</svg>
